{
	"patcher" : 	{
		"fileversion" : 1,
		"appversion" : 		{
			"major" : 8,
			"minor" : 0,
			"revision" : 3,
			"architecture" : "x64",
			"modernui" : 1
		}
,
		"classnamespace" : "box",
		"rect" : [ 106.0, 102.0, 1255.0, 685.0 ],
		"bglocked" : 0,
		"openinpresentation" : 0,
		"default_fontsize" : 12.0,
		"default_fontface" : 0,
		"default_fontname" : "Arial",
		"gridonopen" : 1,
		"gridsize" : [ 15.0, 15.0 ],
		"gridsnaponopen" : 1,
		"objectsnaponopen" : 1,
		"statusbarvisible" : 2,
		"toolbarvisible" : 1,
		"lefttoolbarpinned" : 0,
		"toptoolbarpinned" : 0,
		"righttoolbarpinned" : 0,
		"bottomtoolbarpinned" : 0,
		"toolbars_unpinned_last_save" : 0,
		"tallnewobj" : 0,
		"boxanimatetime" : 200,
		"enablehscroll" : 1,
		"enablevscroll" : 1,
		"devicewidth" : 0.0,
		"description" : "",
		"digest" : "",
		"tags" : "",
		"style" : "",
		"subpatcher_template" : "",
		"boxes" : [ 			{
				"box" : 				{
					"id" : "obj-32",
					"maxclass" : "newobj",
					"numinlets" : 1,
					"numoutlets" : 2,
					"outlettype" : [ "jit_matrix", "" ],
					"patching_rect" : [ 693.0, 79.0, 61.0, 22.0 ],
					"text" : "cv.jit.track"
				}

			}
, 			{
				"box" : 				{
					"id" : "obj-31",
					"maxclass" : "button",
					"numinlets" : 1,
					"numoutlets" : 1,
					"outlettype" : [ "bang" ],
					"parameter_enable" : 0,
					"patching_rect" : [ 813.0, 376.0, 24.0, 24.0 ]
				}

			}
, 			{
				"box" : 				{
					"id" : "obj-24",
					"maxclass" : "button",
					"numinlets" : 1,
					"numoutlets" : 1,
					"outlettype" : [ "bang" ],
					"parameter_enable" : 0,
					"patching_rect" : [ 734.0, 376.0, 24.0, 24.0 ]
				}

			}
, 			{
				"box" : 				{
					"id" : "obj-22",
					"maxclass" : "newobj",
					"numinlets" : 2,
					"numoutlets" : 2,
					"outlettype" : [ "bang", "" ],
					"patching_rect" : [ 813.0, 340.0, 34.0, 22.0 ],
					"text" : "sel 1"
				}

			}
, 			{
				"box" : 				{
					"id" : "obj-21",
					"maxclass" : "newobj",
					"numinlets" : 2,
					"numoutlets" : 2,
					"outlettype" : [ "bang", "" ],
					"patching_rect" : [ 734.0, 340.0, 38.0, 22.0 ],
					"text" : "sel -1"
				}

			}
, 			{
				"box" : 				{
					"id" : "obj-16",
					"maxclass" : "newobj",
					"numinlets" : 1,
					"numoutlets" : 3,
					"outlettype" : [ "", "int", "int" ],
					"patching_rect" : [ 820.0, 304.0, 58.0, 22.0 ],
					"text" : "change +"
				}

			}
, 			{
				"box" : 				{
					"id" : "obj-15",
					"maxclass" : "newobj",
					"numinlets" : 1,
					"numoutlets" : 3,
					"outlettype" : [ "", "int", "int" ],
					"patching_rect" : [ 738.0, 304.0, 55.0, 22.0 ],
					"text" : "change -"
				}

			}
, 			{
				"box" : 				{
					"id" : "obj-14",
					"maxclass" : "button",
					"numinlets" : 1,
					"numoutlets" : 1,
					"outlettype" : [ "bang" ],
					"parameter_enable" : 0,
					"patching_rect" : [ 556.0, 447.0, 24.0, 24.0 ]
				}

			}
, 			{
				"box" : 				{
					"id" : "obj-2",
					"maxclass" : "newobj",
					"numinlets" : 1,
					"numoutlets" : 0,
					"patcher" : 					{
						"fileversion" : 1,
						"appversion" : 						{
							"major" : 8,
							"minor" : 0,
							"revision" : 3,
							"architecture" : "x64",
							"modernui" : 1
						}
,
						"classnamespace" : "box",
						"rect" : [ 34.0, 79.0, 1372.0, 787.0 ],
						"bglocked" : 0,
						"openinpresentation" : 0,
						"default_fontsize" : 12.0,
						"default_fontface" : 0,
						"default_fontname" : "Arial",
						"gridonopen" : 1,
						"gridsize" : [ 15.0, 15.0 ],
						"gridsnaponopen" : 1,
						"objectsnaponopen" : 1,
						"statusbarvisible" : 2,
						"toolbarvisible" : 1,
						"lefttoolbarpinned" : 0,
						"toptoolbarpinned" : 0,
						"righttoolbarpinned" : 0,
						"bottomtoolbarpinned" : 0,
						"toolbars_unpinned_last_save" : 0,
						"tallnewobj" : 0,
						"boxanimatetime" : 200,
						"enablehscroll" : 1,
						"enablevscroll" : 1,
						"devicewidth" : 0.0,
						"description" : "",
						"digest" : "",
						"tags" : "",
						"style" : "",
						"subpatcher_template" : "",
						"boxes" : [ 							{
								"box" : 								{
									"comment" : "",
									"id" : "obj-131",
									"index" : 1,
									"maxclass" : "inlet",
									"numinlets" : 0,
									"numoutlets" : 1,
									"outlettype" : [ "bang" ],
									"patching_rect" : [ 19.0, 10.0, 30.0, 30.0 ]
								}

							}
, 							{
								"box" : 								{
									"id" : "obj-5",
									"maxclass" : "message",
									"numinlets" : 2,
									"numoutlets" : 1,
									"outlettype" : [ "" ],
									"patching_rect" : [ 237.0, 54.0, 37.0, 22.0 ],
									"text" : "close"
								}

							}
, 							{
								"box" : 								{
									"bgcolor" : [ 0.862745, 0.741176, 0.137255, 1.0 ],
									"bgcolor2" : [ 0.639216, 0.458824, 0.070588, 1.0 ],
									"bgfillcolor_angle" : 270.0,
									"bgfillcolor_autogradient" : 0.0,
									"bgfillcolor_color" : [ 0.290196, 0.309804, 0.301961, 1.0 ],
									"bgfillcolor_color1" : [ 0.862745, 0.741176, 0.137255, 1.0 ],
									"bgfillcolor_color2" : [ 0.639216, 0.458824, 0.070588, 1.0 ],
									"bgfillcolor_proportion" : 0.39,
									"bgfillcolor_type" : "gradient",
									"gradient" : 1,
									"id" : "obj-95",
									"maxclass" : "message",
									"numinlets" : 2,
									"numoutlets" : 1,
									"outlettype" : [ "" ],
									"patching_rect" : [ 88.0, 182.0, 29.5, 22.0 ],
									"text" : "1",
									"textcolor" : [ 0.0, 0.0, 0.0, 1.0 ]
								}

							}
, 							{
								"box" : 								{
									"id" : "obj-91",
									"maxclass" : "newobj",
									"numinlets" : 1,
									"numoutlets" : 1,
									"outlettype" : [ "" ],
									"patching_rect" : [ 837.0, 40.0, 85.0, 22.0 ],
									"text" : "loadmess 480"
								}

							}
, 							{
								"box" : 								{
									"id" : "obj-90",
									"maxclass" : "newobj",
									"numinlets" : 1,
									"numoutlets" : 1,
									"outlettype" : [ "" ],
									"patching_rect" : [ 729.0, 40.0, 85.0, 22.0 ],
									"text" : "loadmess 640"
								}

							}
, 							{
								"box" : 								{
									"id" : "obj-89",
									"maxclass" : "newobj",
									"numinlets" : 1,
									"numoutlets" : 1,
									"outlettype" : [ "" ],
									"patching_rect" : [ 441.0, 40.0, 72.0, 22.0 ],
									"text" : "loadmess 3"
								}

							}
, 							{
								"box" : 								{
									"id" : "obj-83",
									"maxclass" : "newobj",
									"numinlets" : 1,
									"numoutlets" : 1,
									"outlettype" : [ "" ],
									"patching_rect" : [ 729.0, 151.0, 77.0, 22.0 ],
									"text" : "prepend dim"
								}

							}
, 							{
								"box" : 								{
									"id" : "obj-82",
									"maxclass" : "newobj",
									"numinlets" : 2,
									"numoutlets" : 1,
									"outlettype" : [ "" ],
									"patching_rect" : [ 729.0, 114.0, 30.0, 22.0 ],
									"text" : "pak"
								}

							}
, 							{
								"box" : 								{
									"id" : "obj-81",
									"maxclass" : "number",
									"numinlets" : 1,
									"numoutlets" : 2,
									"outlettype" : [ "", "bang" ],
									"parameter_enable" : 0,
									"patching_rect" : [ 794.0, 75.0, 50.0, 22.0 ]
								}

							}
, 							{
								"box" : 								{
									"id" : "obj-79",
									"maxclass" : "number",
									"numinlets" : 1,
									"numoutlets" : 2,
									"outlettype" : [ "", "bang" ],
									"parameter_enable" : 0,
									"patching_rect" : [ 729.0, 75.0, 50.0, 22.0 ]
								}

							}
, 							{
								"box" : 								{
									"id" : "obj-77",
									"maxclass" : "newobj",
									"numinlets" : 0,
									"numoutlets" : 1,
									"outlettype" : [ "" ],
									"patching_rect" : [ 88.0, 54.0, 60.0, 22.0 ],
									"text" : "r final-tex"
								}

							}
, 							{
								"box" : 								{
									"id" : "obj-76",
									"maxclass" : "newobj",
									"numinlets" : 1,
									"numoutlets" : 0,
									"patching_rect" : [ 600.0, 513.0, 82.0, 22.0 ],
									"text" : "send final-tex"
								}

							}
, 							{
								"box" : 								{
									"id" : "obj-75",
									"maxclass" : "newobj",
									"numinlets" : 0,
									"numoutlets" : 1,
									"outlettype" : [ "" ],
									"patching_rect" : [ 627.0, 73.0, 79.0, 22.0 ],
									"text" : "r renderbang"
								}

							}
, 							{
								"box" : 								{
									"id" : "obj-74",
									"maxclass" : "newobj",
									"numinlets" : 1,
									"numoutlets" : 2,
									"outlettype" : [ "jit_matrix", "" ],
									"patching_rect" : [ 627.0, 202.0, 147.0, 22.0 ],
									"text" : "jit.noise 4 float32 640 480"
								}

							}
, 							{
								"box" : 								{
									"id" : "obj-73",
									"maxclass" : "message",
									"numinlets" : 2,
									"numoutlets" : 1,
									"outlettype" : [ "" ],
									"patching_rect" : [ 619.0, 400.0, 53.0, 22.0 ],
									"text" : "rows $1"
								}

							}
, 							{
								"box" : 								{
									"id" : "obj-72",
									"maxclass" : "message",
									"numinlets" : 2,
									"numoutlets" : 1,
									"outlettype" : [ "" ],
									"patching_rect" : [ 553.0, 400.0, 49.0, 22.0 ],
									"text" : "cols $1"
								}

							}
, 							{
								"box" : 								{
									"id" : "obj-69",
									"maxclass" : "newobj",
									"numinlets" : 1,
									"numoutlets" : 1,
									"outlettype" : [ "" ],
									"patching_rect" : [ 619.0, 368.0, 63.0, 22.0 ],
									"text" : "pvar rows"
								}

							}
, 							{
								"box" : 								{
									"id" : "obj-70",
									"maxclass" : "newobj",
									"numinlets" : 1,
									"numoutlets" : 1,
									"outlettype" : [ "" ],
									"patching_rect" : [ 553.0, 368.0, 59.0, 22.0 ],
									"text" : "pvar cols"
								}

							}
, 							{
								"box" : 								{
									"id" : "obj-67",
									"maxclass" : "jit.pwindow",
									"numinlets" : 1,
									"numoutlets" : 2,
									"outlettype" : [ "", "" ],
									"patching_rect" : [ 700.0, 500.0, 229.333327999999995, 172.0 ]
								}

							}
, 							{
								"box" : 								{
									"id" : "obj-66",
									"maxclass" : "newobj",
									"numinlets" : 2,
									"numoutlets" : 2,
									"outlettype" : [ "jit_gl_texture", "" ],
									"patcher" : 									{
										"fileversion" : 1,
										"appversion" : 										{
											"major" : 8,
											"minor" : 0,
											"revision" : 3,
											"architecture" : "x64",
											"modernui" : 1
										}
,
										"classnamespace" : "jit.gen",
										"rect" : [ 739.0, 79.0, 600.0, 559.0 ],
										"bglocked" : 0,
										"openinpresentation" : 0,
										"default_fontsize" : 12.0,
										"default_fontface" : 0,
										"default_fontname" : "Arial",
										"gridonopen" : 1,
										"gridsize" : [ 15.0, 15.0 ],
										"gridsnaponopen" : 1,
										"objectsnaponopen" : 1,
										"statusbarvisible" : 2,
										"toolbarvisible" : 1,
										"lefttoolbarpinned" : 0,
										"toptoolbarpinned" : 0,
										"righttoolbarpinned" : 0,
										"bottomtoolbarpinned" : 0,
										"toolbars_unpinned_last_save" : 0,
										"tallnewobj" : 0,
										"boxanimatetime" : 200,
										"enablehscroll" : 1,
										"enablevscroll" : 1,
										"devicewidth" : 0.0,
										"description" : "",
										"digest" : "",
										"tags" : "",
										"style" : "",
										"subpatcher_template" : "",
										"boxes" : [ 											{
												"box" : 												{
													"id" : "obj-25",
													"maxclass" : "newobj",
													"numinlets" : 2,
													"numoutlets" : 1,
													"outlettype" : [ "" ],
													"patching_rect" : [ 74.25, 244.0, 29.5, 22.0 ],
													"text" : "+"
												}

											}
, 											{
												"box" : 												{
													"id" : "obj-24",
													"maxclass" : "newobj",
													"numinlets" : 2,
													"numoutlets" : 1,
													"outlettype" : [ "" ],
													"patching_rect" : [ 303.0, 288.0, 49.0, 22.0 ],
													"text" : "vec 0 0"
												}

											}
, 											{
												"box" : 												{
													"id" : "obj-23",
													"maxclass" : "newobj",
													"numinlets" : 1,
													"numoutlets" : 1,
													"outlettype" : [ "" ],
													"patching_rect" : [ 382.0, 242.0, 43.0, 22.0 ],
													"text" : "/ rows"
												}

											}
, 											{
												"box" : 												{
													"id" : "obj-22",
													"maxclass" : "newobj",
													"numinlets" : 1,
													"numoutlets" : 1,
													"outlettype" : [ "" ],
													"patching_rect" : [ 303.0, 242.0, 39.0, 22.0 ],
													"text" : "/ cols"
												}

											}
, 											{
												"box" : 												{
													"id" : "obj-21",
													"maxclass" : "newobj",
													"numinlets" : 1,
													"numoutlets" : 1,
													"outlettype" : [ "" ],
													"patching_rect" : [ 382.0, 200.0, 34.0, 22.0 ],
													"text" : "floor"
												}

											}
, 											{
												"box" : 												{
													"id" : "obj-20",
													"maxclass" : "newobj",
													"numinlets" : 1,
													"numoutlets" : 1,
													"outlettype" : [ "" ],
													"patching_rect" : [ 303.0, 200.0, 34.0, 22.0 ],
													"text" : "floor"
												}

											}
, 											{
												"box" : 												{
													"id" : "obj-19",
													"maxclass" : "newobj",
													"numinlets" : 1,
													"numoutlets" : 1,
													"outlettype" : [ "" ],
													"patching_rect" : [ 382.0, 169.0, 39.0, 22.0 ],
													"text" : "/ cols"
												}

											}
, 											{
												"box" : 												{
													"id" : "obj-18",
													"maxclass" : "newobj",
													"numinlets" : 1,
													"numoutlets" : 1,
													"outlettype" : [ "" ],
													"patching_rect" : [ 303.0, 169.0, 46.0, 22.0 ],
													"text" : "% cols"
												}

											}
, 											{
												"box" : 												{
													"id" : "obj-16",
													"maxclass" : "newobj",
													"numinlets" : 2,
													"numoutlets" : 1,
													"outlettype" : [ "" ],
													"patching_rect" : [ 348.0, 108.0, 29.5, 22.0 ],
													"text" : "*"
												}

											}
, 											{
												"box" : 												{
													"id" : "obj-15",
													"maxclass" : "newobj",
													"numinlets" : 2,
													"numoutlets" : 1,
													"outlettype" : [ "" ],
													"patching_rect" : [ 407.0, 62.0, 29.5, 22.0 ],
													"text" : "*"
												}

											}
, 											{
												"box" : 												{
													"id" : "obj-14",
													"maxclass" : "newobj",
													"numinlets" : 0,
													"numoutlets" : 1,
													"outlettype" : [ "" ],
													"patching_rect" : [ 496.0, 20.0, 73.0, 22.0 ],
													"text" : "param rows"
												}

											}
, 											{
												"box" : 												{
													"id" : "obj-13",
													"maxclass" : "newobj",
													"numinlets" : 0,
													"numoutlets" : 1,
													"outlettype" : [ "" ],
													"patching_rect" : [ 407.0, 20.0, 69.0, 22.0 ],
													"text" : "param cols"
												}

											}
, 											{
												"box" : 												{
													"id" : "obj-12",
													"maxclass" : "newobj",
													"numinlets" : 1,
													"numoutlets" : 1,
													"outlettype" : [ "" ],
													"patching_rect" : [ 348.0, 62.0, 44.0, 22.0 ],
													"text" : "swiz 0"
												}

											}
, 											{
												"box" : 												{
													"id" : "obj-11",
													"maxclass" : "newobj",
													"numinlets" : 2,
													"numoutlets" : 1,
													"outlettype" : [ "" ],
													"patching_rect" : [ 129.0, 62.0, 49.0, 22.0 ],
													"text" : "vec 0 0"
												}

											}
, 											{
												"box" : 												{
													"id" : "obj-10",
													"maxclass" : "newobj",
													"numinlets" : 0,
													"numoutlets" : 1,
													"outlettype" : [ "" ],
													"patching_rect" : [ 217.0, 20.0, 83.0, 22.0 ],
													"text" : "param rows 3"
												}

											}
, 											{
												"box" : 												{
													"id" : "obj-9",
													"maxclass" : "newobj",
													"numinlets" : 0,
													"numoutlets" : 1,
													"outlettype" : [ "" ],
													"patching_rect" : [ 129.0, 20.0, 79.0, 22.0 ],
													"text" : "param cols 3"
												}

											}
, 											{
												"box" : 												{
													"id" : "obj-7",
													"maxclass" : "newobj",
													"numinlets" : 2,
													"numoutlets" : 1,
													"outlettype" : [ "" ],
													"patching_rect" : [ 70.0, 108.0, 29.5, 22.0 ],
													"text" : "/"
												}

											}
, 											{
												"box" : 												{
													"id" : "obj-6",
													"maxclass" : "newobj",
													"numinlets" : 0,
													"numoutlets" : 1,
													"outlettype" : [ "" ],
													"patching_rect" : [ 70.0, 20.0, 38.0, 22.0 ],
													"text" : "norm"
												}

											}
, 											{
												"box" : 												{
													"id" : "obj-5",
													"maxclass" : "newobj",
													"numinlets" : 2,
													"numoutlets" : 1,
													"outlettype" : [ "" ],
													"patching_rect" : [ 28.0, 288.0, 49.0, 22.0 ],
													"text" : "sample"
												}

											}
, 											{
												"box" : 												{
													"id" : "obj-1",
													"maxclass" : "newobj",
													"numinlets" : 0,
													"numoutlets" : 1,
													"outlettype" : [ "" ],
													"patching_rect" : [ 348.0, 20.0, 30.0, 22.0 ],
													"text" : "in 1"
												}

											}
, 											{
												"box" : 												{
													"id" : "obj-2",
													"maxclass" : "newobj",
													"numinlets" : 0,
													"numoutlets" : 1,
													"outlettype" : [ "" ],
													"patching_rect" : [ 28.0, 244.0, 30.0, 22.0 ],
													"text" : "in 2"
												}

											}
, 											{
												"box" : 												{
													"id" : "obj-4",
													"maxclass" : "newobj",
													"numinlets" : 1,
													"numoutlets" : 0,
													"patching_rect" : [ 28.0, 361.0, 37.0, 22.0 ],
													"text" : "out 1"
												}

											}
 ],
										"lines" : [ 											{
												"patchline" : 												{
													"destination" : [ "obj-12", 0 ],
													"source" : [ "obj-1", 0 ]
												}

											}
, 											{
												"patchline" : 												{
													"destination" : [ "obj-11", 1 ],
													"source" : [ "obj-10", 0 ]
												}

											}
, 											{
												"patchline" : 												{
													"destination" : [ "obj-7", 1 ],
													"source" : [ "obj-11", 0 ]
												}

											}
, 											{
												"patchline" : 												{
													"destination" : [ "obj-16", 0 ],
													"source" : [ "obj-12", 0 ]
												}

											}
, 											{
												"patchline" : 												{
													"destination" : [ "obj-15", 0 ],
													"source" : [ "obj-13", 0 ]
												}

											}
, 											{
												"patchline" : 												{
													"destination" : [ "obj-15", 1 ],
													"source" : [ "obj-14", 0 ]
												}

											}
, 											{
												"patchline" : 												{
													"destination" : [ "obj-16", 1 ],
													"source" : [ "obj-15", 0 ]
												}

											}
, 											{
												"patchline" : 												{
													"destination" : [ "obj-18", 0 ],
													"order" : 1,
													"source" : [ "obj-16", 0 ]
												}

											}
, 											{
												"patchline" : 												{
													"destination" : [ "obj-19", 0 ],
													"order" : 0,
													"source" : [ "obj-16", 0 ]
												}

											}
, 											{
												"patchline" : 												{
													"destination" : [ "obj-20", 0 ],
													"source" : [ "obj-18", 0 ]
												}

											}
, 											{
												"patchline" : 												{
													"destination" : [ "obj-21", 0 ],
													"source" : [ "obj-19", 0 ]
												}

											}
, 											{
												"patchline" : 												{
													"destination" : [ "obj-5", 0 ],
													"source" : [ "obj-2", 0 ]
												}

											}
, 											{
												"patchline" : 												{
													"destination" : [ "obj-22", 0 ],
													"source" : [ "obj-20", 0 ]
												}

											}
, 											{
												"patchline" : 												{
													"destination" : [ "obj-23", 0 ],
													"source" : [ "obj-21", 0 ]
												}

											}
, 											{
												"patchline" : 												{
													"destination" : [ "obj-24", 0 ],
													"source" : [ "obj-22", 0 ]
												}

											}
, 											{
												"patchline" : 												{
													"destination" : [ "obj-24", 1 ],
													"source" : [ "obj-23", 0 ]
												}

											}
, 											{
												"patchline" : 												{
													"destination" : [ "obj-25", 1 ],
													"source" : [ "obj-24", 0 ]
												}

											}
, 											{
												"patchline" : 												{
													"destination" : [ "obj-5", 1 ],
													"source" : [ "obj-25", 0 ]
												}

											}
, 											{
												"patchline" : 												{
													"destination" : [ "obj-4", 0 ],
													"source" : [ "obj-5", 0 ]
												}

											}
, 											{
												"patchline" : 												{
													"destination" : [ "obj-7", 0 ],
													"source" : [ "obj-6", 0 ]
												}

											}
, 											{
												"patchline" : 												{
													"destination" : [ "obj-25", 0 ],
													"source" : [ "obj-7", 0 ]
												}

											}
, 											{
												"patchline" : 												{
													"destination" : [ "obj-11", 0 ],
													"source" : [ "obj-9", 0 ]
												}

											}
 ],
										"editing_bgcolor" : [ 0.9, 0.9, 0.9, 1.0 ]
									}
,
									"patching_rect" : [ 700.0, 443.0, 51.0, 22.0 ],
									"text" : "jit.gl.pix"
								}

							}
, 							{
								"box" : 								{
									"id" : "obj-56",
									"maxclass" : "newobj",
									"numinlets" : 1,
									"numoutlets" : 1,
									"outlettype" : [ "" ],
									"patching_rect" : [ 851.0, 322.0, 77.0, 22.0 ],
									"text" : "prepend dim"
								}

							}
, 							{
								"box" : 								{
									"id" : "obj-57",
									"maxclass" : "newobj",
									"numinlets" : 2,
									"numoutlets" : 1,
									"outlettype" : [ "" ],
									"patching_rect" : [ 851.0, 290.0, 42.0, 22.0 ],
									"text" : "pak i i"
								}

							}
, 							{
								"box" : 								{
									"id" : "obj-58",
									"maxclass" : "newobj",
									"numinlets" : 2,
									"numoutlets" : 1,
									"outlettype" : [ "int" ],
									"patching_rect" : [ 912.0, 258.0, 39.0, 22.0 ],
									"text" : "* 480"
								}

							}
, 							{
								"box" : 								{
									"id" : "obj-59",
									"maxclass" : "newobj",
									"numinlets" : 2,
									"numoutlets" : 1,
									"outlettype" : [ "int" ],
									"patching_rect" : [ 851.0, 258.0, 39.0, 22.0 ],
									"text" : "* 640"
								}

							}
, 							{
								"box" : 								{
									"id" : "obj-60",
									"maxclass" : "newobj",
									"numinlets" : 1,
									"numoutlets" : 1,
									"outlettype" : [ "" ],
									"patching_rect" : [ 912.0, 224.0, 63.0, 22.0 ],
									"text" : "pvar rows"
								}

							}
, 							{
								"box" : 								{
									"id" : "obj-61",
									"maxclass" : "newobj",
									"numinlets" : 1,
									"numoutlets" : 1,
									"outlettype" : [ "" ],
									"patching_rect" : [ 851.0, 224.0, 59.0, 22.0 ],
									"text" : "pvar cols"
								}

							}
, 							{
								"box" : 								{
									"id" : "obj-55",
									"maxclass" : "newobj",
									"numinlets" : 1,
									"numoutlets" : 2,
									"outlettype" : [ "jit_matrix", "" ],
									"patching_rect" : [ 700.0, 368.0, 180.0, 22.0 ],
									"text" : "jit.matrix 4 float32 1 1 @adapt 0"
								}

							}
, 							{
								"box" : 								{
									"id" : "obj-53",
									"maxclass" : "newobj",
									"numinlets" : 1,
									"numoutlets" : 2,
									"outlettype" : [ "jit_matrix", "" ],
									"patching_rect" : [ 1062.0, 210.5, 83.0, 22.0 ],
									"text" : "jit.matrix louis"
								}

							}
, 							{
								"box" : 								{
									"id" : "obj-52",
									"maxclass" : "newobj",
									"numinlets" : 0,
									"numoutlets" : 1,
									"outlettype" : [ "" ],
									"patching_rect" : [ 1062.0, 151.0, 79.0, 22.0 ],
									"text" : "r renderbang"
								}

							}
, 							{
								"box" : 								{
									"id" : "obj-51",
									"maxclass" : "newobj",
									"numinlets" : 1,
									"numoutlets" : 0,
									"patching_rect" : [ 71.0, 135.0, 81.0, 22.0 ],
									"text" : "s renderbang"
								}

							}
, 							{
								"box" : 								{
									"id" : "obj-50",
									"maxclass" : "jit.pwindow",
									"numinlets" : 1,
									"numoutlets" : 2,
									"outlettype" : [ "", "" ],
									"patching_rect" : [ 943.0, 500.0, 263.333344000000011, 197.5 ]
								}

							}
, 							{
								"box" : 								{
									"id" : "obj-49",
									"maxclass" : "message",
									"numinlets" : 2,
									"numoutlets" : 1,
									"outlettype" : [ "" ],
									"patching_rect" : [ 219.5, 643.0, 99.0, 22.0 ],
									"text" : "dstdimend $1 $2"
								}

							}
, 							{
								"box" : 								{
									"id" : "obj-48",
									"maxclass" : "newobj",
									"numinlets" : 2,
									"numoutlets" : 1,
									"outlettype" : [ "" ],
									"patching_rect" : [ 268.0, 592.0, 48.0, 22.0 ],
									"text" : "pack i i"
								}

							}
, 							{
								"box" : 								{
									"id" : "obj-47",
									"maxclass" : "newobj",
									"numinlets" : 2,
									"numoutlets" : 1,
									"outlettype" : [ "int" ],
									"patching_rect" : [ 326.5, 553.0, 41.0, 22.0 ],
									"text" : "+ 479"
								}

							}
, 							{
								"box" : 								{
									"id" : "obj-46",
									"maxclass" : "newobj",
									"numinlets" : 2,
									"numoutlets" : 1,
									"outlettype" : [ "int" ],
									"patching_rect" : [ 268.0, 553.0, 41.0, 22.0 ],
									"text" : "+ 639"
								}

							}
, 							{
								"box" : 								{
									"id" : "obj-45",
									"maxclass" : "message",
									"numinlets" : 2,
									"numoutlets" : 1,
									"outlettype" : [ "" ],
									"patching_rect" : [ 112.0, 643.0, 103.0, 22.0 ],
									"text" : "dstdimstart $1 $2"
								}

							}
, 							{
								"box" : 								{
									"id" : "obj-43",
									"maxclass" : "newobj",
									"numinlets" : 2,
									"numoutlets" : 1,
									"outlettype" : [ "" ],
									"patching_rect" : [ 160.0, 592.0, 48.0, 22.0 ],
									"text" : "pack i i"
								}

							}
, 							{
								"box" : 								{
									"id" : "obj-42",
									"maxclass" : "newobj",
									"numinlets" : 2,
									"numoutlets" : 1,
									"outlettype" : [ "int" ],
									"patching_rect" : [ 293.0, 500.0, 39.0, 22.0 ],
									"text" : "* 480"
								}

							}
, 							{
								"box" : 								{
									"id" : "obj-41",
									"maxclass" : "newobj",
									"numinlets" : 2,
									"numoutlets" : 1,
									"outlettype" : [ "int" ],
									"patching_rect" : [ 189.0, 500.0, 39.0, 22.0 ],
									"text" : "* 640"
								}

							}
, 							{
								"box" : 								{
									"id" : "obj-40",
									"maxclass" : "newobj",
									"numinlets" : 2,
									"numoutlets" : 1,
									"outlettype" : [ "int" ],
									"patching_rect" : [ 293.0, 459.0, 29.5, 22.0 ],
									"text" : "/"
								}

							}
, 							{
								"box" : 								{
									"id" : "obj-39",
									"maxclass" : "newobj",
									"numinlets" : 1,
									"numoutlets" : 1,
									"outlettype" : [ "" ],
									"patching_rect" : [ 211.5, 414.0, 59.0, 22.0 ],
									"text" : "pvar cols"
								}

							}
, 							{
								"box" : 								{
									"id" : "obj-38",
									"maxclass" : "newobj",
									"numinlets" : 2,
									"numoutlets" : 1,
									"outlettype" : [ "int" ],
									"patching_rect" : [ 189.0, 459.0, 29.5, 22.0 ],
									"text" : "%"
								}

							}
, 							{
								"box" : 								{
									"id" : "obj-37",
									"maxclass" : "newobj",
									"numinlets" : 2,
									"numoutlets" : 1,
									"outlettype" : [ "int" ],
									"patching_rect" : [ 365.0, 394.0, 29.5, 22.0 ],
									"text" : "- 1"
								}

							}
, 							{
								"box" : 								{
									"id" : "obj-36",
									"maxclass" : "newobj",
									"numinlets" : 2,
									"numoutlets" : 1,
									"outlettype" : [ "int" ],
									"patching_rect" : [ 365.0, 362.0, 29.5, 22.0 ],
									"text" : "*"
								}

							}
, 							{
								"box" : 								{
									"id" : "obj-35",
									"maxclass" : "newobj",
									"numinlets" : 2,
									"numoutlets" : 1,
									"outlettype" : [ "" ],
									"patching_rect" : [ 365.0, 331.0, 30.0, 22.0 ],
									"text" : "pak"
								}

							}
, 							{
								"box" : 								{
									"id" : "obj-33",
									"maxclass" : "newobj",
									"numinlets" : 1,
									"numoutlets" : 1,
									"outlettype" : [ "" ],
									"patching_rect" : [ 431.0, 296.0, 63.0, 22.0 ],
									"text" : "pvar rows"
								}

							}
, 							{
								"box" : 								{
									"id" : "obj-32",
									"maxclass" : "newobj",
									"numinlets" : 1,
									"numoutlets" : 1,
									"outlettype" : [ "" ],
									"patching_rect" : [ 365.0, 296.0, 59.0, 22.0 ],
									"text" : "pvar cols"
								}

							}
, 							{
								"box" : 								{
									"id" : "obj-31",
									"maxclass" : "newobj",
									"numinlets" : 5,
									"numoutlets" : 4,
									"outlettype" : [ "int", "", "", "int" ],
									"patching_rect" : [ 189.0, 337.0, 61.0, 22.0 ],
									"text" : "counter"
								}

							}
, 							{
								"box" : 								{
									"id" : "obj-30",
									"maxclass" : "newobj",
									"numinlets" : 1,
									"numoutlets" : 2,
									"outlettype" : [ "", "bang" ],
									"patching_rect" : [ 88.0, 296.0, 30.0, 22.0 ],
									"text" : "t l b"
								}

							}
, 							{
								"box" : 								{
									"id" : "obj-29",
									"maxclass" : "newobj",
									"numinlets" : 1,
									"numoutlets" : 1,
									"outlettype" : [ "" ],
									"patching_rect" : [ 406.0, 643.0, 77.0, 22.0 ],
									"text" : "prepend dim"
								}

							}
, 							{
								"box" : 								{
									"id" : "obj-27",
									"maxclass" : "newobj",
									"numinlets" : 2,
									"numoutlets" : 1,
									"outlettype" : [ "" ],
									"patching_rect" : [ 406.0, 611.0, 42.0, 22.0 ],
									"text" : "pak i i"
								}

							}
, 							{
								"box" : 								{
									"id" : "obj-26",
									"maxclass" : "newobj",
									"numinlets" : 2,
									"numoutlets" : 1,
									"outlettype" : [ "int" ],
									"patching_rect" : [ 467.0, 579.0, 39.0, 22.0 ],
									"text" : "* 480"
								}

							}
, 							{
								"box" : 								{
									"id" : "obj-25",
									"maxclass" : "newobj",
									"numinlets" : 2,
									"numoutlets" : 1,
									"outlettype" : [ "int" ],
									"patching_rect" : [ 406.0, 579.0, 39.0, 22.0 ],
									"text" : "* 640"
								}

							}
, 							{
								"box" : 								{
									"id" : "obj-24",
									"maxclass" : "newobj",
									"numinlets" : 1,
									"numoutlets" : 1,
									"outlettype" : [ "" ],
									"patching_rect" : [ 467.0, 545.0, 63.0, 22.0 ],
									"text" : "pvar rows"
								}

							}
, 							{
								"box" : 								{
									"id" : "obj-23",
									"maxclass" : "newobj",
									"numinlets" : 1,
									"numoutlets" : 1,
									"outlettype" : [ "" ],
									"patching_rect" : [ 406.0, 545.0, 59.0, 22.0 ],
									"text" : "pvar cols"
								}

							}
, 							{
								"box" : 								{
									"id" : "obj-22",
									"maxclass" : "newobj",
									"numinlets" : 1,
									"numoutlets" : 2,
									"outlettype" : [ "jit_matrix", "" ],
									"patching_rect" : [ 83.0, 712.0, 220.0, 22.0 ],
									"text" : "jit.matrix louis 4 char 1 1 @usedstdim 1"
								}

							}
, 							{
								"box" : 								{
									"id" : "obj-21",
									"maxclass" : "comment",
									"numinlets" : 1,
									"numoutlets" : 0,
									"patching_rect" : [ 381.0, 42.0, 58.0, 20.0 ],
									"text" : "Rows"
								}

							}
, 							{
								"box" : 								{
									"id" : "obj-20",
									"maxclass" : "comment",
									"numinlets" : 1,
									"numoutlets" : 0,
									"patching_rect" : [ 309.0, 42.0, 58.0, 20.0 ],
									"text" : "Columns"
								}

							}
, 							{
								"box" : 								{
									"id" : "obj-15",
									"maxclass" : "number",
									"numinlets" : 1,
									"numoutlets" : 2,
									"outlettype" : [ "", "bang" ],
									"parameter_enable" : 0,
									"patching_rect" : [ 378.0, 73.0, 50.0, 22.0 ],
									"varname" : "rows"
								}

							}
, 							{
								"box" : 								{
									"id" : "obj-13",
									"maxclass" : "number",
									"numinlets" : 1,
									"numoutlets" : 2,
									"outlettype" : [ "", "bang" ],
									"parameter_enable" : 0,
									"patching_rect" : [ 317.0, 73.0, 50.0, 22.0 ],
									"varname" : "cols"
								}

							}
, 							{
								"box" : 								{
									"id" : "obj-11",
									"maxclass" : "jit.pwindow",
									"numinlets" : 1,
									"numoutlets" : 2,
									"outlettype" : [ "", "" ],
									"patching_rect" : [ 200.0, 163.0, 156.0, 117.0 ]
								}

							}
, 							{
								"box" : 								{
									"id" : "obj-10",
									"maxclass" : "message",
									"numinlets" : 2,
									"numoutlets" : 1,
									"outlettype" : [ "" ],
									"patching_rect" : [ 178.0, 54.0, 37.0, 22.0 ],
									"text" : "open"
								}

							}
, 							{
								"box" : 								{
									"id" : "obj-4",
									"maxclass" : "newobj",
									"numinlets" : 1,
									"numoutlets" : 2,
									"outlettype" : [ "jit_matrix", "" ],
									"patching_rect" : [ 178.0, 124.0, 155.0, 22.0 ],
									"text" : "jit.grab 640 480 @unique 1"
								}

							}
, 							{
								"box" : 								{
									"id" : "obj-3",
									"maxclass" : "toggle",
									"numinlets" : 1,
									"numoutlets" : 1,
									"outlettype" : [ "int" ],
									"parameter_enable" : 0,
									"patching_rect" : [ 39.0, 66.0, 24.0, 24.0 ]
								}

							}
, 							{
								"box" : 								{
									"id" : "obj-1",
									"maxclass" : "newobj",
									"numinlets" : 1,
									"numoutlets" : 3,
									"outlettype" : [ "", "bang", "" ],
									"patching_rect" : [ 39.0, 109.0, 51.0, 22.0 ],
									"text" : "jit.world"
								}

							}
 ],
						"lines" : [ 							{
								"patchline" : 								{
									"destination" : [ "obj-51", 0 ],
									"source" : [ "obj-1", 1 ]
								}

							}
, 							{
								"patchline" : 								{
									"destination" : [ "obj-4", 0 ],
									"source" : [ "obj-10", 0 ]
								}

							}
, 							{
								"patchline" : 								{
									"destination" : [ "obj-3", 0 ],
									"source" : [ "obj-131", 0 ]
								}

							}
, 							{
								"patchline" : 								{
									"destination" : [ "obj-25", 0 ],
									"source" : [ "obj-23", 0 ]
								}

							}
, 							{
								"patchline" : 								{
									"destination" : [ "obj-26", 0 ],
									"source" : [ "obj-24", 0 ]
								}

							}
, 							{
								"patchline" : 								{
									"destination" : [ "obj-27", 0 ],
									"source" : [ "obj-25", 0 ]
								}

							}
, 							{
								"patchline" : 								{
									"destination" : [ "obj-27", 1 ],
									"source" : [ "obj-26", 0 ]
								}

							}
, 							{
								"patchline" : 								{
									"destination" : [ "obj-29", 0 ],
									"source" : [ "obj-27", 0 ]
								}

							}
, 							{
								"patchline" : 								{
									"destination" : [ "obj-22", 0 ],
									"source" : [ "obj-29", 0 ]
								}

							}
, 							{
								"patchline" : 								{
									"destination" : [ "obj-1", 0 ],
									"source" : [ "obj-3", 0 ]
								}

							}
, 							{
								"patchline" : 								{
									"destination" : [ "obj-22", 0 ],
									"source" : [ "obj-30", 0 ]
								}

							}
, 							{
								"patchline" : 								{
									"destination" : [ "obj-31", 0 ],
									"source" : [ "obj-30", 1 ]
								}

							}
, 							{
								"patchline" : 								{
									"destination" : [ "obj-38", 0 ],
									"order" : 1,
									"source" : [ "obj-31", 0 ]
								}

							}
, 							{
								"patchline" : 								{
									"destination" : [ "obj-40", 0 ],
									"midpoints" : [ 198.5, 394.5, 302.5, 394.5 ],
									"order" : 0,
									"source" : [ "obj-31", 0 ]
								}

							}
, 							{
								"patchline" : 								{
									"destination" : [ "obj-35", 0 ],
									"source" : [ "obj-32", 0 ]
								}

							}
, 							{
								"patchline" : 								{
									"destination" : [ "obj-35", 1 ],
									"source" : [ "obj-33", 0 ]
								}

							}
, 							{
								"patchline" : 								{
									"destination" : [ "obj-36", 0 ],
									"source" : [ "obj-35", 0 ]
								}

							}
, 							{
								"patchline" : 								{
									"destination" : [ "obj-37", 0 ],
									"source" : [ "obj-36", 0 ]
								}

							}
, 							{
								"patchline" : 								{
									"destination" : [ "obj-31", 4 ],
									"source" : [ "obj-37", 0 ]
								}

							}
, 							{
								"patchline" : 								{
									"destination" : [ "obj-41", 0 ],
									"source" : [ "obj-38", 0 ]
								}

							}
, 							{
								"patchline" : 								{
									"destination" : [ "obj-38", 1 ],
									"order" : 1,
									"source" : [ "obj-39", 0 ]
								}

							}
, 							{
								"patchline" : 								{
									"destination" : [ "obj-40", 1 ],
									"order" : 0,
									"source" : [ "obj-39", 0 ]
								}

							}
, 							{
								"patchline" : 								{
									"destination" : [ "obj-11", 0 ],
									"order" : 0,
									"source" : [ "obj-4", 0 ]
								}

							}
, 							{
								"patchline" : 								{
									"destination" : [ "obj-30", 0 ],
									"order" : 1,
									"source" : [ "obj-4", 0 ]
								}

							}
, 							{
								"patchline" : 								{
									"destination" : [ "obj-42", 0 ],
									"source" : [ "obj-40", 0 ]
								}

							}
, 							{
								"patchline" : 								{
									"destination" : [ "obj-43", 0 ],
									"order" : 1,
									"source" : [ "obj-41", 0 ]
								}

							}
, 							{
								"patchline" : 								{
									"destination" : [ "obj-46", 0 ],
									"order" : 0,
									"source" : [ "obj-41", 0 ]
								}

							}
, 							{
								"patchline" : 								{
									"destination" : [ "obj-43", 1 ],
									"order" : 1,
									"source" : [ "obj-42", 0 ]
								}

							}
, 							{
								"patchline" : 								{
									"destination" : [ "obj-47", 0 ],
									"order" : 0,
									"source" : [ "obj-42", 0 ]
								}

							}
, 							{
								"patchline" : 								{
									"destination" : [ "obj-45", 0 ],
									"source" : [ "obj-43", 0 ]
								}

							}
, 							{
								"patchline" : 								{
									"destination" : [ "obj-22", 0 ],
									"source" : [ "obj-45", 0 ]
								}

							}
, 							{
								"patchline" : 								{
									"destination" : [ "obj-48", 0 ],
									"source" : [ "obj-46", 0 ]
								}

							}
, 							{
								"patchline" : 								{
									"destination" : [ "obj-48", 1 ],
									"source" : [ "obj-47", 0 ]
								}

							}
, 							{
								"patchline" : 								{
									"destination" : [ "obj-49", 0 ],
									"source" : [ "obj-48", 0 ]
								}

							}
, 							{
								"patchline" : 								{
									"destination" : [ "obj-22", 0 ],
									"source" : [ "obj-49", 0 ]
								}

							}
, 							{
								"patchline" : 								{
									"destination" : [ "obj-4", 0 ],
									"source" : [ "obj-5", 0 ]
								}

							}
, 							{
								"patchline" : 								{
									"destination" : [ "obj-53", 0 ],
									"source" : [ "obj-52", 0 ]
								}

							}
, 							{
								"patchline" : 								{
									"destination" : [ "obj-50", 0 ],
									"midpoints" : [ 1071.5, 439.625, 952.5, 439.625 ],
									"order" : 0,
									"source" : [ "obj-53", 0 ]
								}

							}
, 							{
								"patchline" : 								{
									"destination" : [ "obj-66", 1 ],
									"midpoints" : [ 1071.5, 415.0, 741.5, 415.0 ],
									"order" : 1,
									"source" : [ "obj-53", 0 ]
								}

							}
, 							{
								"patchline" : 								{
									"destination" : [ "obj-66", 0 ],
									"source" : [ "obj-55", 0 ]
								}

							}
, 							{
								"patchline" : 								{
									"destination" : [ "obj-55", 0 ],
									"source" : [ "obj-56", 0 ]
								}

							}
, 							{
								"patchline" : 								{
									"destination" : [ "obj-56", 0 ],
									"source" : [ "obj-57", 0 ]
								}

							}
, 							{
								"patchline" : 								{
									"destination" : [ "obj-57", 1 ],
									"source" : [ "obj-58", 0 ]
								}

							}
, 							{
								"patchline" : 								{
									"destination" : [ "obj-57", 0 ],
									"source" : [ "obj-59", 0 ]
								}

							}
, 							{
								"patchline" : 								{
									"destination" : [ "obj-58", 0 ],
									"source" : [ "obj-60", 0 ]
								}

							}
, 							{
								"patchline" : 								{
									"destination" : [ "obj-59", 0 ],
									"source" : [ "obj-61", 0 ]
								}

							}
, 							{
								"patchline" : 								{
									"destination" : [ "obj-67", 0 ],
									"order" : 0,
									"source" : [ "obj-66", 0 ]
								}

							}
, 							{
								"patchline" : 								{
									"destination" : [ "obj-76", 0 ],
									"order" : 1,
									"source" : [ "obj-66", 0 ]
								}

							}
, 							{
								"patchline" : 								{
									"destination" : [ "obj-73", 0 ],
									"source" : [ "obj-69", 0 ]
								}

							}
, 							{
								"patchline" : 								{
									"destination" : [ "obj-72", 0 ],
									"source" : [ "obj-70", 0 ]
								}

							}
, 							{
								"patchline" : 								{
									"destination" : [ "obj-66", 0 ],
									"source" : [ "obj-72", 0 ]
								}

							}
, 							{
								"patchline" : 								{
									"destination" : [ "obj-66", 0 ],
									"source" : [ "obj-73", 0 ]
								}

							}
, 							{
								"patchline" : 								{
									"destination" : [ "obj-55", 0 ],
									"source" : [ "obj-74", 0 ]
								}

							}
, 							{
								"patchline" : 								{
									"destination" : [ "obj-74", 0 ],
									"source" : [ "obj-75", 0 ]
								}

							}
, 							{
								"patchline" : 								{
									"destination" : [ "obj-1", 0 ],
									"source" : [ "obj-77", 0 ]
								}

							}
, 							{
								"patchline" : 								{
									"destination" : [ "obj-82", 0 ],
									"source" : [ "obj-79", 0 ]
								}

							}
, 							{
								"patchline" : 								{
									"destination" : [ "obj-82", 1 ],
									"source" : [ "obj-81", 0 ]
								}

							}
, 							{
								"patchline" : 								{
									"destination" : [ "obj-83", 0 ],
									"source" : [ "obj-82", 0 ]
								}

							}
, 							{
								"patchline" : 								{
									"destination" : [ "obj-74", 0 ],
									"source" : [ "obj-83", 0 ]
								}

							}
, 							{
								"patchline" : 								{
									"destination" : [ "obj-13", 0 ],
									"order" : 1,
									"source" : [ "obj-89", 0 ]
								}

							}
, 							{
								"patchline" : 								{
									"destination" : [ "obj-15", 0 ],
									"order" : 0,
									"source" : [ "obj-89", 0 ]
								}

							}
, 							{
								"patchline" : 								{
									"destination" : [ "obj-79", 0 ],
									"source" : [ "obj-90", 0 ]
								}

							}
, 							{
								"patchline" : 								{
									"destination" : [ "obj-81", 0 ],
									"source" : [ "obj-91", 0 ]
								}

							}
 ]
					}
,
					"patching_rect" : [ 859.0, 456.0, 62.0, 22.0 ],
					"saved_object_attributes" : 					{
						"description" : "",
						"digest" : "",
						"globalpatchername" : "",
						"tags" : ""
					}
,
					"text" : "p 1person"
				}

			}
, 			{
				"box" : 				{
					"id" : "obj-12",
					"maxclass" : "newobj",
					"numinlets" : 2,
					"numoutlets" : 2,
					"outlettype" : [ "bang", "" ],
					"patching_rect" : [ 623.5, 368.33001708984375, 34.0, 22.0 ],
					"text" : "sel 0"
				}

			}
, 			{
				"box" : 				{
					"id" : "obj-11",
					"maxclass" : "message",
					"numinlets" : 2,
					"numoutlets" : 1,
					"outlettype" : [ "" ],
					"patching_rect" : [ 130.75, 219.0, 29.5, 22.0 ],
					"text" : "0.3"
				}

			}
, 			{
				"box" : 				{
					"id" : "obj-19",
					"maxclass" : "newobj",
					"numinlets" : 2,
					"numoutlets" : 2,
					"outlettype" : [ "bang", "" ],
					"patching_rect" : [ 537.5, 368.33001708984375, 34.0, 22.0 ],
					"text" : "sel 1"
				}

			}
, 			{
				"box" : 				{
					"id" : "obj-17",
					"maxclass" : "newobj",
					"numinlets" : 1,
					"numoutlets" : 1,
					"outlettype" : [ "jit_matrix" ],
					"patcher" : 					{
						"fileversion" : 1,
						"appversion" : 						{
							"major" : 8,
							"minor" : 0,
							"revision" : 3,
							"architecture" : "x64",
							"modernui" : 1
						}
,
						"classnamespace" : "box",
						"rect" : [ 374.0, 91.0, 1065.0, 683.0 ],
						"bglocked" : 0,
						"openinpresentation" : 0,
						"default_fontsize" : 12.0,
						"default_fontface" : 0,
						"default_fontname" : "Arial",
						"gridonopen" : 1,
						"gridsize" : [ 15.0, 15.0 ],
						"gridsnaponopen" : 1,
						"objectsnaponopen" : 1,
						"statusbarvisible" : 2,
						"toolbarvisible" : 1,
						"lefttoolbarpinned" : 0,
						"toptoolbarpinned" : 0,
						"righttoolbarpinned" : 0,
						"bottomtoolbarpinned" : 0,
						"toolbars_unpinned_last_save" : 0,
						"tallnewobj" : 0,
						"boxanimatetime" : 200,
						"enablehscroll" : 1,
						"enablevscroll" : 1,
						"devicewidth" : 0.0,
						"description" : "",
						"digest" : "",
						"tags" : "",
						"style" : "",
						"subpatcher_template" : "",
						"boxes" : [ 							{
								"box" : 								{
									"id" : "obj-6",
									"maxclass" : "newobj",
									"numinlets" : 1,
									"numoutlets" : 2,
									"outlettype" : [ "jit_matrix", "" ],
									"patching_rect" : [ 742.0, 480.0, 97.0, 22.0 ],
									"text" : "jit.matrix 1 16 12"
								}

							}
, 							{
								"box" : 								{
									"id" : "obj-32",
									"maxclass" : "toggle",
									"numinlets" : 1,
									"numoutlets" : 1,
									"outlettype" : [ "int" ],
									"parameter_enable" : 0,
									"patching_rect" : [ 24.0, 306.0, 24.0, 24.0 ]
								}

							}
, 							{
								"box" : 								{
									"comment" : "",
									"id" : "obj-31",
									"index" : 1,
									"maxclass" : "outlet",
									"numinlets" : 1,
									"numoutlets" : 0,
									"patching_rect" : [ 519.0, 550.0, 30.0, 30.0 ]
								}

							}
, 							{
								"box" : 								{
									"comment" : "",
									"id" : "obj-29",
									"index" : 1,
									"maxclass" : "inlet",
									"numinlets" : 0,
									"numoutlets" : 1,
									"outlettype" : [ "bang" ],
									"patching_rect" : [ 15.0, 163.0, 30.0, 30.0 ]
								}

							}
, 							{
								"box" : 								{
									"id" : "obj-35",
									"maxclass" : "newobj",
									"numinlets" : 2,
									"numoutlets" : 2,
									"outlettype" : [ "bang", "" ],
									"patching_rect" : [ 263.0, 607.0, 34.0, 22.0 ],
									"text" : "sel 1"
								}

							}
, 							{
								"box" : 								{
									"id" : "obj-34",
									"maxclass" : "newobj",
									"numinlets" : 1,
									"numoutlets" : 1,
									"outlettype" : [ "" ],
									"patching_rect" : [ 85.0, 607.0, 133.0, 22.0 ],
									"text" : "if $i1 > 39 then 1 else 0"
								}

							}
, 							{
								"box" : 								{
									"id" : "obj-30",
									"maxclass" : "number",
									"numinlets" : 1,
									"numoutlets" : 2,
									"outlettype" : [ "", "bang" ],
									"parameter_enable" : 0,
									"patching_rect" : [ 25.0, 570.0, 50.0, 22.0 ]
								}

							}
, 							{
								"box" : 								{
									"id" : "obj-28",
									"maxclass" : "newobj",
									"numinlets" : 2,
									"numoutlets" : 1,
									"outlettype" : [ "bang" ],
									"patching_rect" : [ 10.0, 469.0, 63.0, 22.0 ],
									"text" : "metro 500"
								}

							}
, 							{
								"box" : 								{
									"id" : "obj-26",
									"maxclass" : "newobj",
									"numinlets" : 5,
									"numoutlets" : 4,
									"outlettype" : [ "int", "", "", "int" ],
									"patching_rect" : [ 25.0, 524.0, 75.0, 22.0 ],
									"text" : "counter 1 40"
								}

							}
, 							{
								"box" : 								{
									"fontname" : "Arial",
									"fontsize" : 12.0,
									"id" : "obj-27",
									"maxclass" : "newobj",
									"numinlets" : 1,
									"numoutlets" : 2,
									"outlettype" : [ "bang", "" ],
									"patching_rect" : [ 117.0, 493.0, 63.0, 22.0 ],
									"text" : "jit.window"
								}

							}
, 							{
								"box" : 								{
									"bgcolor" : [ 0.866667, 0.866667, 0.866667, 1.0 ],
									"fontname" : "Arial",
									"fontsize" : 14.0,
									"htricolor" : [ 0.87, 0.82, 0.24, 1.0 ],
									"id" : "obj-23",
									"maxclass" : "number",
									"numinlets" : 1,
									"numoutlets" : 2,
									"outlettype" : [ "", "bang" ],
									"parameter_enable" : 0,
									"patching_rect" : [ 309.0, 378.0, 43.0, 24.0 ],
									"textcolor" : [ 0.0, 0.0, 0.0, 1.0 ],
									"tricolor" : [ 0.75, 0.75, 0.75, 1.0 ],
									"triscale" : 0.9
								}

							}
, 							{
								"box" : 								{
									"bgcolor" : [ 0.866667, 0.866667, 0.866667, 1.0 ],
									"fontname" : "Arial",
									"fontsize" : 14.0,
									"htricolor" : [ 0.87, 0.82, 0.24, 1.0 ],
									"id" : "obj-24",
									"maxclass" : "number",
									"numinlets" : 1,
									"numoutlets" : 2,
									"outlettype" : [ "", "bang" ],
									"parameter_enable" : 0,
									"patching_rect" : [ 263.0, 378.0, 43.0, 24.0 ],
									"textcolor" : [ 0.0, 0.0, 0.0, 1.0 ],
									"tricolor" : [ 0.75, 0.75, 0.75, 1.0 ],
									"triscale" : 0.9
								}

							}
, 							{
								"box" : 								{
									"fontname" : "Arial",
									"fontsize" : 14.0,
									"id" : "obj-25",
									"maxclass" : "newobj",
									"numinlets" : 3,
									"numoutlets" : 1,
									"outlettype" : [ "" ],
									"patching_rect" : [ 224.0, 405.0, 126.0, 24.0 ],
									"text" : "pak dim 320 240"
								}

							}
, 							{
								"box" : 								{
									"fontname" : "Century Gothic",
									"fontsize" : 13.0,
									"id" : "obj-33",
									"maxclass" : "comment",
									"numinlets" : 1,
									"numoutlets" : 0,
									"patching_rect" : [ 263.0, 356.0, 80.0, 19.0 ],
									"text" : "dimensions"
								}

							}
, 							{
								"box" : 								{
									"fontname" : "Century Gothic",
									"fontsize" : 13.0,
									"id" : "obj-1",
									"linecount" : 2,
									"maxclass" : "comment",
									"numinlets" : 1,
									"numoutlets" : 0,
									"patching_rect" : [ 229.0, 21.0, 289.0, 32.0 ],
									"text" : "this patch randomly selects from a folder of videos and picks a random starting frame."
								}

							}
, 							{
								"box" : 								{
									"id" : "obj-2",
									"maxclass" : "jit.pwindow",
									"numinlets" : 1,
									"numoutlets" : 2,
									"outlettype" : [ "", "" ],
									"patching_rect" : [ 491.0, 157.0, 320.0, 240.0 ]
								}

							}
, 							{
								"box" : 								{
									"id" : "obj-3",
									"maxclass" : "button",
									"numinlets" : 1,
									"numoutlets" : 1,
									"outlettype" : [ "bang" ],
									"parameter_enable" : 0,
									"patching_rect" : [ 168.0, 185.0, 26.0, 26.0 ]
								}

							}
, 							{
								"box" : 								{
									"fontname" : "Century Gothic",
									"fontsize" : 13.0,
									"id" : "obj-4",
									"maxclass" : "comment",
									"numinlets" : 1,
									"numoutlets" : 0,
									"patching_rect" : [ 208.0, 246.0, 76.0, 19.0 ],
									"text" : "clip menu"
								}

							}
, 							{
								"box" : 								{
									"fontname" : "Century Gothic",
									"fontsize" : 13.0,
									"id" : "obj-5",
									"maxclass" : "comment",
									"numinlets" : 1,
									"numoutlets" : 0,
									"patching_rect" : [ 85.0, 108.0, 136.0, 19.0 ],
									"text" : "drop a movie folder"
								}

							}
, 							{
								"box" : 								{
									"fontname" : "Arial",
									"fontsize" : 12.0,
									"id" : "obj-7",
									"maxclass" : "newobj",
									"numinlets" : 2,
									"numoutlets" : 1,
									"outlettype" : [ "bang" ],
									"patching_rect" : [ 54.0, 413.0, 67.0, 22.0 ],
									"text" : "qmetro 33"
								}

							}
, 							{
								"box" : 								{
									"fontname" : "Arial",
									"fontsize" : 12.0,
									"id" : "obj-8",
									"maxclass" : "newobj",
									"numinlets" : 1,
									"numoutlets" : 2,
									"outlettype" : [ "jit_matrix", "" ],
									"patching_rect" : [ 519.0, 476.0, 80.0, 22.0 ],
									"text" : "jit.qt.movie"
								}

							}
, 							{
								"box" : 								{
									"fontname" : "Arial",
									"fontsize" : 12.0,
									"id" : "obj-9",
									"maxclass" : "newobj",
									"numinlets" : 1,
									"numoutlets" : 1,
									"outlettype" : [ "" ],
									"patching_rect" : [ 153.0, 370.0, 88.0, 22.0 ],
									"text" : "prepend read"
								}

							}
, 							{
								"box" : 								{
									"fontname" : "Arial",
									"fontsize" : 12.0,
									"id" : "obj-10",
									"maxclass" : "newobj",
									"numinlets" : 2,
									"numoutlets" : 1,
									"outlettype" : [ "int" ],
									"patching_rect" : [ 168.0, 219.0, 55.0, 22.0 ],
									"text" : "random"
								}

							}
, 							{
								"box" : 								{
									"fontname" : "Arial",
									"fontsize" : 12.0,
									"id" : "obj-11",
									"maxclass" : "newobj",
									"numinlets" : 2,
									"numoutlets" : 2,
									"outlettype" : [ "", "" ],
									"patching_rect" : [ 188.0, 271.0, 96.0, 22.0 ],
									"text" : "route populate"
								}

							}
, 							{
								"box" : 								{
									"allowdrag" : 0,
									"autopopulate" : 1,
									"fontname" : "Arial",
									"fontsize" : 12.0,
									"id" : "obj-12",
									"items" : [ "flower2.mp4", ",", "flower3.mp4", ",", "flower4.mp4", ",", "flower5.mp4", ",", "flower6.mp4", ",", "flower7.mp4" ],
									"maxclass" : "umenu",
									"numinlets" : 1,
									"numoutlets" : 3,
									"outlettype" : [ "int", "", "" ],
									"parameter_enable" : 0,
									"patching_rect" : [ 59.0, 248.0, 148.0, 22.0 ],
									"prefix" : "Macintosh HD:/Users/cheesehan/Desktop/final/videos/"
								}

							}
, 							{
								"box" : 								{
									"fontname" : "Arial",
									"fontsize" : 12.0,
									"id" : "obj-13",
									"maxclass" : "newobj",
									"numinlets" : 1,
									"numoutlets" : 1,
									"outlettype" : [ "" ],
									"patching_rect" : [ 59.0, 149.0, 98.0, 22.0 ],
									"text" : "prepend prefix"
								}

							}
, 							{
								"box" : 								{
									"angle" : 0.0,
									"bgcolor" : [ 1.0, 1.0, 0.0, 1.0 ],
									"id" : "obj-14",
									"maxclass" : "panel",
									"mode" : 0,
									"numinlets" : 1,
									"numoutlets" : 0,
									"patching_rect" : [ 59.0, 91.0, 183.0, 55.0 ],
									"rounded" : 0
								}

							}
, 							{
								"box" : 								{
									"border" : 0.0,
									"id" : "obj-15",
									"ignoreclick" : 1,
									"maxclass" : "dropfile",
									"numinlets" : 1,
									"numoutlets" : 2,
									"outlettype" : [ "", "" ],
									"patching_rect" : [ 59.0, 91.0, 188.0, 55.0 ],
									"rounded" : 0.0
								}

							}
, 							{
								"box" : 								{
									"fontname" : "Arial",
									"fontsize" : 12.0,
									"id" : "obj-16",
									"maxclass" : "message",
									"numinlets" : 2,
									"numoutlets" : 1,
									"outlettype" : [ "" ],
									"patching_rect" : [ 290.0, 576.0, 67.0, 22.0 ],
									"text" : "frame $1"
								}

							}
, 							{
								"box" : 								{
									"fontname" : "Arial",
									"fontsize" : 12.0,
									"id" : "obj-17",
									"maxclass" : "newobj",
									"numinlets" : 1,
									"numoutlets" : 2,
									"outlettype" : [ "bang", "int" ],
									"patching_rect" : [ 290.0, 509.0, 55.0, 22.0 ],
									"text" : "t b i"
								}

							}
, 							{
								"box" : 								{
									"fontname" : "Arial",
									"fontsize" : 12.0,
									"id" : "obj-18",
									"maxclass" : "newobj",
									"numinlets" : 1,
									"numoutlets" : 1,
									"outlettype" : [ "bang" ],
									"patching_rect" : [ 185.0, 508.0, 24.0, 22.0 ],
									"text" : "t b"
								}

							}
, 							{
								"box" : 								{
									"fontname" : "Arial",
									"fontsize" : 12.0,
									"id" : "obj-19",
									"maxclass" : "newobj",
									"numinlets" : 2,
									"numoutlets" : 1,
									"outlettype" : [ "int" ],
									"patching_rect" : [ 290.0, 545.0, 55.0, 22.0 ],
									"text" : "random"
								}

							}
, 							{
								"box" : 								{
									"fontname" : "Arial",
									"fontsize" : 12.0,
									"id" : "obj-20",
									"maxclass" : "message",
									"numinlets" : 2,
									"numoutlets" : 1,
									"outlettype" : [ "" ],
									"patching_rect" : [ 185.0, 535.0, 97.0, 22.0 ],
									"text" : "getframecount"
								}

							}
, 							{
								"box" : 								{
									"fontname" : "Arial",
									"fontsize" : 12.0,
									"id" : "obj-21",
									"maxclass" : "newobj",
									"numinlets" : 3,
									"numoutlets" : 3,
									"outlettype" : [ "", "", "" ],
									"patching_rect" : [ 185.0, 484.0, 228.0, 22.0 ],
									"text" : "route read framecount"
								}

							}
, 							{
								"box" : 								{
									"fontname" : "Century Gothic",
									"fontsize" : 13.0,
									"id" : "obj-22",
									"linecount" : 2,
									"maxclass" : "comment",
									"numinlets" : 1,
									"numoutlets" : 0,
									"patching_rect" : [ 197.0, 178.0, 130.0, 32.0 ],
									"text" : "select a new clip randomly"
								}

							}
 ],
						"lines" : [ 							{
								"patchline" : 								{
									"destination" : [ "obj-12", 0 ],
									"midpoints" : [ 177.5, 242.0, 68.5, 242.0 ],
									"source" : [ "obj-10", 0 ]
								}

							}
, 							{
								"patchline" : 								{
									"destination" : [ "obj-10", 1 ],
									"midpoints" : [ 197.5, 291.0, 222.0, 291.0, 222.0, 303.0, 294.0, 303.0, 294.0, 228.0, 225.0, 228.0, 225.0, 216.0, 213.5, 216.0 ],
									"source" : [ "obj-11", 0 ]
								}

							}
, 							{
								"patchline" : 								{
									"destination" : [ "obj-11", 0 ],
									"source" : [ "obj-12", 2 ]
								}

							}
, 							{
								"patchline" : 								{
									"destination" : [ "obj-9", 0 ],
									"source" : [ "obj-12", 1 ]
								}

							}
, 							{
								"patchline" : 								{
									"destination" : [ "obj-12", 0 ],
									"source" : [ "obj-13", 0 ]
								}

							}
, 							{
								"patchline" : 								{
									"destination" : [ "obj-13", 0 ],
									"source" : [ "obj-15", 0 ]
								}

							}
, 							{
								"patchline" : 								{
									"destination" : [ "obj-8", 0 ],
									"midpoints" : [ 299.5, 594.0, 111.0, 594.0, 111.0, 453.0, 528.5, 453.0 ],
									"source" : [ "obj-16", 0 ]
								}

							}
, 							{
								"patchline" : 								{
									"destination" : [ "obj-19", 1 ],
									"source" : [ "obj-17", 1 ]
								}

							}
, 							{
								"patchline" : 								{
									"destination" : [ "obj-19", 0 ],
									"source" : [ "obj-17", 0 ]
								}

							}
, 							{
								"patchline" : 								{
									"destination" : [ "obj-20", 0 ],
									"source" : [ "obj-18", 0 ]
								}

							}
, 							{
								"patchline" : 								{
									"destination" : [ "obj-16", 0 ],
									"source" : [ "obj-19", 0 ]
								}

							}
, 							{
								"patchline" : 								{
									"destination" : [ "obj-8", 0 ],
									"midpoints" : [ 194.5, 555.0, 111.0, 555.0, 111.0, 453.0, 528.5, 453.0 ],
									"source" : [ "obj-20", 0 ]
								}

							}
, 							{
								"patchline" : 								{
									"destination" : [ "obj-17", 0 ],
									"source" : [ "obj-21", 1 ]
								}

							}
, 							{
								"patchline" : 								{
									"destination" : [ "obj-18", 0 ],
									"source" : [ "obj-21", 0 ]
								}

							}
, 							{
								"patchline" : 								{
									"destination" : [ "obj-25", 2 ],
									"midpoints" : [ 318.5, 402.0, 340.5, 402.0 ],
									"source" : [ "obj-23", 0 ]
								}

							}
, 							{
								"patchline" : 								{
									"destination" : [ "obj-25", 1 ],
									"midpoints" : [ 272.5, 402.0, 287.0, 402.0 ],
									"source" : [ "obj-24", 0 ]
								}

							}
, 							{
								"patchline" : 								{
									"destination" : [ "obj-8", 0 ],
									"midpoints" : [ 233.5, 444.0, 528.5, 444.0 ],
									"source" : [ "obj-25", 0 ]
								}

							}
, 							{
								"patchline" : 								{
									"destination" : [ "obj-30", 0 ],
									"source" : [ "obj-26", 0 ]
								}

							}
, 							{
								"patchline" : 								{
									"destination" : [ "obj-26", 0 ],
									"source" : [ "obj-28", 0 ]
								}

							}
, 							{
								"patchline" : 								{
									"destination" : [ "obj-32", 0 ],
									"source" : [ "obj-29", 0 ]
								}

							}
, 							{
								"patchline" : 								{
									"destination" : [ "obj-10", 0 ],
									"source" : [ "obj-3", 0 ]
								}

							}
, 							{
								"patchline" : 								{
									"destination" : [ "obj-34", 0 ],
									"source" : [ "obj-30", 0 ]
								}

							}
, 							{
								"patchline" : 								{
									"destination" : [ "obj-28", 0 ],
									"order" : 1,
									"source" : [ "obj-32", 0 ]
								}

							}
, 							{
								"patchline" : 								{
									"destination" : [ "obj-7", 0 ],
									"order" : 0,
									"source" : [ "obj-32", 0 ]
								}

							}
, 							{
								"patchline" : 								{
									"destination" : [ "obj-35", 0 ],
									"source" : [ "obj-34", 0 ]
								}

							}
, 							{
								"patchline" : 								{
									"destination" : [ "obj-3", 0 ],
									"source" : [ "obj-35", 0 ]
								}

							}
, 							{
								"patchline" : 								{
									"destination" : [ "obj-8", 0 ],
									"midpoints" : [ 63.5, 444.0, 528.5, 444.0 ],
									"source" : [ "obj-7", 0 ]
								}

							}
, 							{
								"patchline" : 								{
									"destination" : [ "obj-2", 0 ],
									"midpoints" : [ 528.5, 366.0, 111.0, 366.0, 111.0, 330.0, 357.0, 330.0, 357.0, 90.0, 500.5, 90.0 ],
									"order" : 1,
									"source" : [ "obj-8", 0 ]
								}

							}
, 							{
								"patchline" : 								{
									"destination" : [ "obj-21", 0 ],
									"source" : [ "obj-8", 1 ]
								}

							}
, 							{
								"patchline" : 								{
									"destination" : [ "obj-27", 0 ],
									"midpoints" : [ 528.5, 543.0, 126.5, 543.0 ],
									"order" : 2,
									"source" : [ "obj-8", 0 ]
								}

							}
, 							{
								"patchline" : 								{
									"destination" : [ "obj-31", 0 ],
									"order" : 0,
									"source" : [ "obj-8", 0 ]
								}

							}
, 							{
								"patchline" : 								{
									"destination" : [ "obj-8", 0 ],
									"midpoints" : [ 162.5, 435.0, 528.5, 435.0 ],
									"source" : [ "obj-9", 0 ]
								}

							}
 ]
					}
,
					"patching_rect" : [ 544.5, 500.0, 47.0, 22.0 ],
					"saved_object_attributes" : 					{
						"description" : "",
						"digest" : "",
						"globalpatchername" : "",
						"tags" : ""
					}
,
					"text" : "p video"
				}

			}
, 			{
				"box" : 				{
					"id" : "obj-3",
					"maxclass" : "newobj",
					"numinlets" : 1,
					"numoutlets" : 1,
					"outlettype" : [ "" ],
					"patching_rect" : [ 537.5, 330.0, 120.0, 22.0 ],
					"text" : "if $i1>0 then 1 else 0"
				}

			}
, 			{
				"box" : 				{
					"id" : "obj-28",
					"linecount" : 2,
					"maxclass" : "comment",
					"numinlets" : 1,
					"numoutlets" : 0,
					"patching_rect" : [ 360.0, 376.0, 168.0, 33.0 ],
					"text" : "To see if there are more than one people in the space"
				}

			}
, 			{
				"box" : 				{
					"fontname" : "Arial",
					"fontsize" : 12.0,
					"format" : 6,
					"id" : "obj-52",
					"maxclass" : "flonum",
					"maximum" : 5.0,
					"minimum" : 0.0,
					"numinlets" : 1,
					"numoutlets" : 2,
					"outlettype" : [ "", "bang" ],
					"parameter_enable" : 0,
					"patching_rect" : [ 594.5, 274.0, 50.0, 22.0 ]
				}

			}
, 			{
				"box" : 				{
					"fontname" : "Arial",
					"fontsize" : 12.0,
					"id" : "obj-49",
					"maxclass" : "newobj",
					"numinlets" : 1,
					"numoutlets" : 3,
					"outlettype" : [ "", "", "" ],
					"patching_rect" : [ 467.0, 261.0, 46.0, 22.0 ],
					"text" : "jit.iter"
				}

			}
, 			{
				"box" : 				{
					"fontname" : "Arial",
					"fontsize" : 12.0,
					"id" : "obj-20",
					"maxclass" : "comment",
					"numinlets" : 1,
					"numoutlets" : 0,
					"patching_rect" : [ 53.0, 219.0, 61.0, 20.0 ],
					"text" : "Set to 0.3"
				}

			}
, 			{
				"box" : 				{
					"fontname" : "Arial",
					"fontsize" : 12.0,
					"format" : 6,
					"id" : "obj-18",
					"maxclass" : "flonum",
					"numinlets" : 1,
					"numoutlets" : 2,
					"outlettype" : [ "", "bang" ],
					"parameter_enable" : 0,
					"patching_rect" : [ 127.0, 270.5, 52.0, 22.0 ]
				}

			}
, 			{
				"box" : 				{
					"fontname" : "Arial",
					"fontsize" : 12.0,
					"id" : "obj-13",
					"maxclass" : "message",
					"numinlets" : 2,
					"numoutlets" : 1,
					"outlettype" : [ "" ],
					"patching_rect" : [ 127.0, 325.0, 59.0, 22.0 ],
					"text" : "xfade $1"
				}

			}
, 			{
				"box" : 				{
					"id" : "obj-8",
					"maxclass" : "jit.pwindow",
					"numinlets" : 1,
					"numoutlets" : 2,
					"outlettype" : [ "", "" ],
					"patching_rect" : [ 211.0, 467.0, 322.0, 231.0 ]
				}

			}
, 			{
				"box" : 				{
					"fontname" : "Arial",
					"fontsize" : 12.0,
					"id" : "obj-1",
					"maxclass" : "newobj",
					"numinlets" : 2,
					"numoutlets" : 2,
					"outlettype" : [ "jit_matrix", "" ],
					"patching_rect" : [ 211.0, 368.33001708984375, 54.0, 22.0 ],
					"text" : "jit.xfade"
				}

			}
, 			{
				"box" : 				{
					"fontname" : "Arial",
					"fontsize" : 10.0,
					"id" : "obj-33",
					"maxclass" : "newobj",
					"numinlets" : 1,
					"numoutlets" : 1,
					"outlettype" : [ "" ],
					"patching_rect" : [ 388.0, 334.0, 75.0, 20.0 ],
					"text" : "prepend frgb"
				}

			}
, 			{
				"box" : 				{
					"compatibility" : 1,
					"id" : "obj-35",
					"maxclass" : "swatch",
					"numinlets" : 3,
					"numoutlets" : 2,
					"outlettype" : [ "", "float" ],
					"parameter_enable" : 0,
					"patching_rect" : [ 388.0, 294.0, 130.0, 24.0 ]
				}

			}
, 			{
				"box" : 				{
					"fontname" : "Arial",
					"fontsize" : 10.0,
					"id" : "obj-30",
					"linecount" : 2,
					"maxclass" : "comment",
					"numinlets" : 1,
					"numoutlets" : 0,
					"patching_rect" : [ 345.0, 203.0, 135.0, 29.0 ],
					"text" : "Use as small an input as possible, for performance.",
					"varname" : "output-description[2]"
				}

			}
, 			{
				"box" : 				{
					"fontname" : "Arial",
					"fontsize" : 10.0,
					"id" : "obj-29",
					"maxclass" : "newobj",
					"numinlets" : 1,
					"numoutlets" : 2,
					"outlettype" : [ "jit_matrix", "" ],
					"patching_rect" : [ 211.0, 210.0, 130.0, 20.0 ],
					"text" : "cv.jit.resize @size 160 120"
				}

			}
, 			{
				"box" : 				{
					"fontname" : "Arial",
					"fontsize" : 10.0,
					"id" : "obj-27",
					"maxclass" : "newobj",
					"numinlets" : 2,
					"numoutlets" : 1,
					"outlettype" : [ "jit_matrix" ],
					"patching_rect" : [ 211.0, 296.0, 82.0, 20.0 ],
					"text" : "cv.jit.faces.draw"
				}

			}
, 			{
				"box" : 				{
					"fontname" : "Arial",
					"fontsize" : 10.0,
					"id" : "obj-26",
					"maxclass" : "newobj",
					"numinlets" : 1,
					"numoutlets" : 2,
					"outlettype" : [ "jit_matrix", "" ],
					"patching_rect" : [ 211.0, 257.0, 57.0, 20.0 ],
					"text" : "cv.jit.faces"
				}

			}
, 			{
				"box" : 				{
					"fontname" : "Arial",
					"fontsize" : 10.0,
					"id" : "obj-7",
					"maxclass" : "comment",
					"numinlets" : 1,
					"numoutlets" : 0,
					"patching_rect" : [ 280.0, 167.0, 157.0, 18.0 ],
					"text" : "Works only on greyscale images!",
					"varname" : "output-description[1]"
				}

			}
, 			{
				"box" : 				{
					"fontname" : "Arial",
					"fontsize" : 10.0,
					"id" : "obj-69",
					"maxclass" : "newobj",
					"numinlets" : 1,
					"numoutlets" : 2,
					"outlettype" : [ "jit_matrix", "" ],
					"patching_rect" : [ 211.0, 168.0, 62.0, 20.0 ],
					"text" : "jit.rgb2luma"
				}

			}
, 			{
				"box" : 				{
					"fontname" : "Arial",
					"fontsize" : 10.0,
					"hidden" : 1,
					"id" : "obj-64",
					"maxclass" : "message",
					"numinlets" : 2,
					"numoutlets" : 1,
					"outlettype" : [ "" ],
					"patching_rect" : [ 313.0, 65.0, 31.0, 20.0 ],
					"text" : "0"
				}

			}
, 			{
				"box" : 				{
					"fontname" : "Arial",
					"fontsize" : 10.0,
					"hidden" : 1,
					"id" : "obj-61",
					"maxclass" : "newobj",
					"numinlets" : 2,
					"numoutlets" : 2,
					"outlettype" : [ "bang", "" ],
					"patching_rect" : [ 274.0, 63.0, 32.0, 20.0 ],
					"text" : "sel 1"
				}

			}
, 			{
				"box" : 				{
					"id" : "obj-50",
					"maxclass" : "toggle",
					"numinlets" : 1,
					"numoutlets" : 1,
					"outlettype" : [ "int" ],
					"parameter_enable" : 0,
					"patching_rect" : [ 211.0, 36.0, 20.0, 20.0 ]
				}

			}
, 			{
				"box" : 				{
					"fontname" : "Arial",
					"fontsize" : 10.0,
					"id" : "obj-48",
					"maxclass" : "newobj",
					"numinlets" : 2,
					"numoutlets" : 1,
					"outlettype" : [ "bang" ],
					"patching_rect" : [ 211.0, 63.0, 50.0, 20.0 ],
					"text" : "qmetro 2"
				}

			}
, 			{
				"box" : 				{
					"fontname" : "Arial",
					"fontsize" : 10.0,
					"id" : "obj-46",
					"maxclass" : "message",
					"numinlets" : 2,
					"numoutlets" : 1,
					"outlettype" : [ "" ],
					"patching_rect" : [ 279.0, 86.0, 34.0, 20.0 ],
					"text" : "close"
				}

			}
, 			{
				"box" : 				{
					"fontname" : "Arial",
					"fontsize" : 10.0,
					"id" : "obj-45",
					"maxclass" : "message",
					"numinlets" : 2,
					"numoutlets" : 1,
					"outlettype" : [ "" ],
					"patching_rect" : [ 238.0, 86.0, 33.0, 20.0 ],
					"text" : "open"
				}

			}
, 			{
				"box" : 				{
					"fontname" : "Arial",
					"fontsize" : 10.0,
					"id" : "obj-43",
					"maxclass" : "newobj",
					"numinlets" : 1,
					"numoutlets" : 2,
					"outlettype" : [ "jit_matrix", "" ],
					"patching_rect" : [ 211.0, 113.0, 92.0, 20.0 ],
					"text" : "cv.jit.grab 320 240"
				}

			}
 ],
		"lines" : [ 			{
				"patchline" : 				{
					"destination" : [ "obj-8", 0 ],
					"source" : [ "obj-1", 0 ]
				}

			}
, 			{
				"patchline" : 				{
					"destination" : [ "obj-18", 0 ],
					"source" : [ "obj-11", 0 ]
				}

			}
, 			{
				"patchline" : 				{
					"destination" : [ "obj-2", 0 ],
					"source" : [ "obj-12", 0 ]
				}

			}
, 			{
				"patchline" : 				{
					"destination" : [ "obj-1", 0 ],
					"source" : [ "obj-13", 0 ]
				}

			}
, 			{
				"patchline" : 				{
					"destination" : [ "obj-17", 0 ],
					"source" : [ "obj-14", 0 ]
				}

			}
, 			{
				"patchline" : 				{
					"destination" : [ "obj-21", 0 ],
					"source" : [ "obj-15", 0 ]
				}

			}
, 			{
				"patchline" : 				{
					"destination" : [ "obj-22", 0 ],
					"source" : [ "obj-16", 0 ]
				}

			}
, 			{
				"patchline" : 				{
					"destination" : [ "obj-13", 0 ],
					"source" : [ "obj-18", 0 ]
				}

			}
, 			{
				"patchline" : 				{
					"destination" : [ "obj-14", 0 ],
					"source" : [ "obj-19", 0 ]
				}

			}
, 			{
				"patchline" : 				{
					"destination" : [ "obj-24", 0 ],
					"source" : [ "obj-21", 0 ]
				}

			}
, 			{
				"patchline" : 				{
					"destination" : [ "obj-31", 0 ],
					"source" : [ "obj-22", 0 ]
				}

			}
, 			{
				"patchline" : 				{
					"destination" : [ "obj-27", 0 ],
					"order" : 1,
					"source" : [ "obj-26", 0 ]
				}

			}
, 			{
				"patchline" : 				{
					"destination" : [ "obj-49", 0 ],
					"order" : 0,
					"source" : [ "obj-26", 0 ]
				}

			}
, 			{
				"patchline" : 				{
					"destination" : [ "obj-1", 0 ],
					"source" : [ "obj-27", 0 ]
				}

			}
, 			{
				"patchline" : 				{
					"destination" : [ "obj-26", 0 ],
					"order" : 1,
					"source" : [ "obj-29", 0 ]
				}

			}
, 			{
				"patchline" : 				{
					"destination" : [ "obj-27", 1 ],
					"midpoints" : [ 220.5, 242.0, 283.5, 242.0 ],
					"order" : 0,
					"source" : [ "obj-29", 0 ]
				}

			}
, 			{
				"patchline" : 				{
					"destination" : [ "obj-12", 0 ],
					"order" : 0,
					"source" : [ "obj-3", 0 ]
				}

			}
, 			{
				"patchline" : 				{
					"destination" : [ "obj-19", 0 ],
					"order" : 1,
					"source" : [ "obj-3", 0 ]
				}

			}
, 			{
				"patchline" : 				{
					"destination" : [ "obj-27", 0 ],
					"source" : [ "obj-33", 0 ]
				}

			}
, 			{
				"patchline" : 				{
					"destination" : [ "obj-33", 0 ],
					"source" : [ "obj-35", 0 ]
				}

			}
, 			{
				"patchline" : 				{
					"destination" : [ "obj-69", 0 ],
					"source" : [ "obj-43", 0 ]
				}

			}
, 			{
				"patchline" : 				{
					"destination" : [ "obj-43", 0 ],
					"midpoints" : [ 247.5, 108.0, 220.5, 108.0 ],
					"source" : [ "obj-45", 0 ]
				}

			}
, 			{
				"patchline" : 				{
					"destination" : [ "obj-43", 0 ],
					"midpoints" : [ 288.5, 108.0, 220.5, 108.0 ],
					"source" : [ "obj-46", 0 ]
				}

			}
, 			{
				"patchline" : 				{
					"destination" : [ "obj-43", 0 ],
					"source" : [ "obj-48", 0 ]
				}

			}
, 			{
				"patchline" : 				{
					"destination" : [ "obj-52", 0 ],
					"source" : [ "obj-49", 1 ]
				}

			}
, 			{
				"patchline" : 				{
					"destination" : [ "obj-48", 0 ],
					"order" : 1,
					"source" : [ "obj-50", 0 ]
				}

			}
, 			{
				"patchline" : 				{
					"destination" : [ "obj-61", 0 ],
					"hidden" : 1,
					"order" : 0,
					"source" : [ "obj-50", 0 ]
				}

			}
, 			{
				"patchline" : 				{
					"destination" : [ "obj-15", 0 ],
					"order" : 1,
					"source" : [ "obj-52", 0 ]
				}

			}
, 			{
				"patchline" : 				{
					"destination" : [ "obj-16", 0 ],
					"order" : 0,
					"source" : [ "obj-52", 0 ]
				}

			}
, 			{
				"patchline" : 				{
					"destination" : [ "obj-3", 0 ],
					"order" : 2,
					"source" : [ "obj-52", 0 ]
				}

			}
, 			{
				"patchline" : 				{
					"destination" : [ "obj-64", 0 ],
					"hidden" : 1,
					"source" : [ "obj-61", 0 ]
				}

			}
, 			{
				"patchline" : 				{
					"destination" : [ "obj-29", 0 ],
					"source" : [ "obj-69", 0 ]
				}

			}
 ],
		"dependency_cache" : [ 			{
				"name" : "cv.jit.grab.maxpat",
				"bootpath" : "~/Documents/Max 8/Packages/cv.jit/patchers",
				"patcherrelativepath" : "../Documents/Max 8/Packages/cv.jit/patchers",
				"type" : "JSON",
				"implicit" : 1
			}
, 			{
				"name" : "cv.jit.faces.draw.maxpat",
				"bootpath" : "~/Documents/Max 8/Packages/cv.jit/patchers",
				"patcherrelativepath" : "../Documents/Max 8/Packages/cv.jit/patchers",
				"type" : "JSON",
				"implicit" : 1
			}
, 			{
				"name" : "cv.jit.faces.mxo",
				"type" : "iLaX"
			}
, 			{
				"name" : "cv.jit.resize.mxo",
				"type" : "iLaX"
			}
, 			{
				"name" : "cv.jit.track.mxo",
				"type" : "iLaX"
			}
 ],
		"autosave" : 0
	}

}
